<svg width="281" height="113" viewBox="0 0 281 113" fill="none" xmlns="http://www.w3.org/2000/svg">
<path d="M0 106V73C0 69.9635 1.07422 67.3854 3.22266 65.2656C5.37109 63.0885 7.96354 62 11 62H49.5V73H13.75C12.9766 73 12.3177 73.2721 11.7734 73.8164C11.2578 74.3607 11 75.0052 11 75.75V78.5H48.125V89.5H11V106H0ZM68.55 106C65.4849 106 62.8924 104.926 60.7727 102.777C58.6242 100.629 57.55 98.0365 57.55 95V73C57.55 69.9635 58.6242 67.3854 60.7727 65.2656C62.9211 63.0885 65.5135 62 68.55 62H105.675V73H71.3C70.5266 73 69.8677 73.2721 69.3234 73.8164C68.8078 74.3607 68.55 75.0052 68.55 75.75V78.5H105.202V89.5H68.55V92.25C68.55 93.0234 68.8078 93.6823 69.3234 94.2266C69.8677 94.7422 70.5266 95 71.3 95H107.05V106H68.55ZM115.1 106V72.3125C115.1 69.276 116.174 66.6979 118.323 64.5781C120.471 62.401 123.064 61.3125 126.1 61.3125C129.423 61.4844 132.173 62.6302 134.35 64.75C135.037 65.3802 144.204 74.5469 161.85 92.25C162.537 92.9375 163.225 92.9375 163.912 92.25C164.371 91.6771 164.6 90.9896 164.6 90.1875V62H175.6V95.6875C175.6 98.7526 174.511 101.345 172.334 103.465C170.186 105.613 167.608 106.688 164.6 106.688C161.277 106.458 158.527 105.312 156.35 103.25C155.662 102.62 146.496 93.4531 128.85 75.75C128.162 75.0625 127.475 75.0625 126.787 75.75C126.329 76.3229 126.1 77.0104 126.1 77.8125V106H115.1ZM183.65 106V62H194.65V106H183.65ZM201.325 106L223.325 84L201.325 62H216.45L232.95 78.5L249.45 62H264.575L242.575 84L264.575 106H249.45L232.95 89.5L216.45 106H201.325Z" fill="white"/>
<path d="M17.024 40L14.528 33.984H5.44L2.88 40H0.256L10.08 17.632L19.648 40H17.024ZM6.368 31.744H13.6L10.016 23.2L6.368 31.744ZM22.4582 18.656H26.3302C27.6316 18.6773 28.6982 18.8053 29.5302 19.04C30.3622 19.2747 31.0876 19.648 31.7063 20.16C32.3463 20.736 32.8263 21.4187 33.1462 22.208C33.4876 22.9973 33.6582 23.84 33.6582 24.736C33.6582 26.6133 33.0396 28.0853 31.8022 29.152C30.5862 30.1973 28.9542 30.72 26.9062 30.72H24.8262V40H22.4582V18.656ZM24.8262 20.896V28.48H26.7782C28.1862 28.48 29.2849 28.1493 30.0742 27.488C30.8636 26.8053 31.2689 25.8453 31.2902 24.608C31.2689 23.392 30.8529 22.4747 30.0422 21.856C29.2529 21.2373 28.1009 20.9173 26.5862 20.896H24.8262ZM36.852 18.656H39.22V37.76H45.108V40H36.852V18.656ZM48.1208 18.656H50.4888V40H48.1208V18.656ZM72.1158 20.416V23.36C71.6678 22.9547 71.1984 22.5813 70.7078 22.24C70.2384 21.8987 69.7798 21.6107 69.3318 21.376C68.7558 21.12 68.1478 20.9173 67.5078 20.768C66.8678 20.6187 66.2491 20.544 65.6518 20.544C63.1984 20.5653 61.1504 21.44 59.5078 23.168C57.8651 24.8747 57.0544 26.9653 57.0758 29.44C57.0758 31.8933 57.8864 33.9627 59.5078 35.648C61.1504 37.312 63.2091 38.144 65.6838 38.144C66.3664 38.1653 67.0384 38.0907 67.6998 37.92C68.3824 37.728 69.0331 37.472 69.6518 37.152C70.0784 36.9387 70.4944 36.6827 70.8998 36.384C71.3264 36.0853 71.7318 35.744 72.1158 35.36V38.304C71.1344 39.008 70.0891 39.5307 68.9798 39.872C67.8704 40.2133 66.7718 40.384 65.6838 40.384C62.5264 40.384 59.8918 39.3387 57.7798 37.248C55.6891 35.136 54.6438 32.5227 54.6438 29.408C54.6438 26.2507 55.6998 23.616 57.8118 21.504C59.9451 19.3707 62.6118 18.304 65.8118 18.304C66.9851 18.304 68.0944 18.4853 69.1398 18.848C70.1851 19.2107 71.1771 19.7333 72.1158 20.416ZM90.5553 40L88.0593 33.984H78.9713L76.4113 40H73.7873L83.6113 17.632L93.1793 40H90.5553ZM79.8993 31.744H87.1313L83.5473 23.2L79.8993 31.744ZM106.047 20.896H100.863V40H98.4945V20.896H93.3105V18.656H106.047V20.896ZM109.039 18.656H111.407V40H109.039V18.656ZM114.219 18.656H116.843L122.859 34.944L128.875 18.656H131.499L122.859 41.28L114.219 18.656ZM144.28 40.384C141.165 40.384 138.53 39.3387 136.376 37.248C134.221 35.136 133.154 32.5013 133.176 29.344C133.176 26.208 134.242 23.584 136.376 21.472C138.53 19.36 141.165 18.304 144.28 18.304C147.373 18.304 149.997 19.36 152.152 21.472C154.306 23.584 155.384 26.208 155.384 29.344C155.384 32.5013 154.306 35.136 152.152 37.248C149.997 39.3387 147.373 40.384 144.28 40.384ZM144.28 20.544C141.869 20.544 139.821 21.408 138.136 23.136C136.45 24.8427 135.608 26.912 135.608 29.344C135.586 31.7973 136.418 33.8773 138.104 35.584C139.81 37.2907 141.869 38.144 144.28 38.144C146.669 38.144 148.706 37.2907 150.392 35.584C152.098 33.8773 152.952 31.7973 152.952 29.344C152.93 26.912 152.077 24.8427 150.392 23.136C148.706 21.408 146.669 20.544 144.28 20.544Z" fill="#00B1D4"/>
</svg>
