<svg width="512" height="346" viewBox="0 0 512 346" fill="none" xmlns="http://www.w3.org/2000/svg">
<g filter="url(#filter0_d_334_302)">
<path d="M304.538 257.6C313.604 250.4 317.738 247.067 316.938 247.6C343.071 226 363.604 208.267 378.538 194.4C393.738 180.533 406.538 166 416.938 150.8C427.338 135.6 432.538 120.8 432.538 106.4C432.538 95.4667 430.004 86.9333 424.938 80.8C419.871 74.6667 412.271 71.6 402.138 71.6C392.004 71.6 384.004 75.4667 378.138 83.2C372.538 90.6667 369.738 101.333 369.738 115.2H303.738C304.271 92.5334 309.071 73.6 318.138 58.4C327.471 43.2 339.604 32 354.538 24.8C369.738 17.6 386.538 14 404.938 14C436.671 14 460.538 22.1333 476.538 38.4C492.804 54.6667 500.938 75.8667 500.938 102C500.938 130.533 491.204 157.067 471.738 181.6C452.271 205.867 427.471 229.6 397.338 252.8H505.338V308.4H304.538V257.6Z" fill="url(#paint0_linear_334_302)"/>
</g>
<g filter="url(#filter1_d_334_302)">
<path d="M42 162.4C42 116.533 50.8 80.3999 68.4 53.9999C86.2667 27.5999 114.933 14.3999 154.4 14.3999C193.867 14.3999 222.4 27.5999 240 53.9999C257.867 80.3999 266.8 116.533 266.8 162.4C266.8 208.8 257.867 245.2 240 271.6C222.4 298 193.867 311.2 154.4 311.2C114.933 311.2 86.2667 298 68.4 271.6C50.8 245.2 42 208.8 42 162.4ZM199.6 162.4C199.6 135.467 196.667 114.8 190.8 100.4C184.933 85.7332 172.8 78.3999 154.4 78.3999C136 78.3999 123.867 85.7332 118 100.4C112.133 114.8 109.2 135.467 109.2 162.4C109.2 180.533 110.267 195.6 112.4 207.6C114.533 219.333 118.8 228.933 125.2 236.4C131.867 243.6 141.6 247.2 154.4 247.2C167.2 247.2 176.8 243.6 183.2 236.4C189.867 228.933 194.267 219.333 196.4 207.6C198.533 195.6 199.6 180.533 199.6 162.4Z" fill="url(#paint1_linear_334_302)"/>
</g>
<defs>
<filter id="filter0_d_334_302" x="261.738" y="0" width="249.6" height="342.4" filterUnits="userSpaceOnUse" color-interpolation-filters="sRGB">
<feFlood flood-opacity="0" result="BackgroundImageFix"/>
<feColorMatrix in="SourceAlpha" type="matrix" values="0 0 0 0 0 0 0 0 0 0 0 0 0 0 0 0 0 0 127 0" result="hardAlpha"/>
<feOffset dx="-18" dy="10"/>
<feGaussianBlur stdDeviation="12"/>
<feComposite in2="hardAlpha" operator="out"/>
<feColorMatrix type="matrix" values="0 0 0 0 0 0 0 0 0 0 0 0 0 0 0 0 0 0 0.15 0"/>
<feBlend mode="normal" in2="BackgroundImageFix" result="effect1_dropShadow_334_302"/>
<feBlend mode="normal" in="SourceGraphic" in2="effect1_dropShadow_334_302" result="shape"/>
</filter>
<filter id="filter1_d_334_302" x="0" y="0.399902" width="272.8" height="344.8" filterUnits="userSpaceOnUse" color-interpolation-filters="sRGB">
<feFlood flood-opacity="0" result="BackgroundImageFix"/>
<feColorMatrix in="SourceAlpha" type="matrix" values="0 0 0 0 0 0 0 0 0 0 0 0 0 0 0 0 0 0 127 0" result="hardAlpha"/>
<feOffset dx="-18" dy="10"/>
<feGaussianBlur stdDeviation="12"/>
<feComposite in2="hardAlpha" operator="out"/>
<feColorMatrix type="matrix" values="0 0 0 0 0 0 0 0 0 0 0 0 0 0 0 0 0 0 0.15 0"/>
<feBlend mode="normal" in2="BackgroundImageFix" result="effect1_dropShadow_334_302"/>
<feBlend mode="normal" in="SourceGraphic" in2="effect1_dropShadow_334_302" result="shape"/>
</filter>
<linearGradient id="paint0_linear_334_302" x1="271" y1="17.8999" x2="271" y2="312.4" gradientUnits="userSpaceOnUse">
<stop offset="0.0769231" stop-color="white"/>
<stop offset="0.490385" stop-color="#B9D0FF"/>
<stop offset="1" stop-color="#15274D"/>
</linearGradient>
<linearGradient id="paint1_linear_334_302" x1="271" y1="17.8999" x2="271" y2="312.4" gradientUnits="userSpaceOnUse">
<stop offset="0.0769231" stop-color="white"/>
<stop offset="0.490385" stop-color="#B9D0FF"/>
<stop offset="1" stop-color="#15274D"/>
</linearGradient>
</defs>
</svg>
