<svg width="77" height="70" viewBox="0 0 77 70" fill="none" xmlns="http://www.w3.org/2000/svg">
<rect width="77" height="70" rx="8" fill="#112143"/>
<path d="M35.9438 25.5013C36.087 25.0622 36.3667 24.6804 36.7422 24.4114C37.1176 24.1425 37.5692 24.0006 38.031 24.0064C38.4929 24.0122 38.9407 24.1654 39.3093 24.4437C39.6779 24.722 39.9479 25.1108 40.08 25.5533L41.6768 28.6993C41.8322 29.0052 42.058 29.2697 42.3356 29.4713C42.6133 29.6728 42.9347 29.8055 43.2737 29.8585L46.814 30.4132C47.2699 30.415 47.7136 30.5605 48.082 30.8291C48.4504 31.0976 48.7246 31.4756 48.8658 31.9091C49.0069 32.3425 49.0077 32.8095 48.8681 33.2435C48.7284 33.6775 48.4555 34.0563 48.088 34.3262L45.5487 36.8568C45.3056 37.0989 45.1234 37.3952 45.0172 37.7214C44.9109 38.0476 44.8837 38.3944 44.9377 38.7332L45.4988 42.228C45.6532 42.666 45.6628 43.1421 45.5261 43.586C45.3893 44.0298 45.1136 44.418 44.7396 44.6933C44.3655 44.9686 43.9129 45.1164 43.4484 45.1149C42.984 45.1134 42.5323 44.9627 42.16 44.685L38.9858 43.06C38.6801 42.9033 38.3414 42.8216 37.9978 42.8216C37.6543 42.8216 37.3156 42.9033 37.0098 43.06L33.8357 44.685C33.4634 44.9604 33.0127 45.1092 32.5496 45.1098C32.0866 45.1103 31.6356 44.9624 31.2627 44.6879C30.8898 44.4134 30.6146 44.0266 30.4776 43.5843C30.3405 43.142 30.3488 42.6674 30.5012 42.2302L31.0602 38.7353C31.1145 38.3962 31.0874 38.049 30.9812 37.7224C30.875 37.3958 30.6926 37.0991 30.4492 36.8568L27.9445 34.3608C27.5646 34.0976 27.2788 33.7199 27.1289 33.2827C26.979 32.8455 26.9728 32.3718 27.1112 31.9309C27.2496 31.4899 27.5254 31.1048 27.8983 30.8317C28.2712 30.5587 28.7217 30.412 29.1838 30.4132L32.722 29.8585C33.0609 29.8055 33.3824 29.6728 33.66 29.4713C33.9376 29.2697 34.1634 29.0052 34.3188 28.6993L35.9438 25.5013Z" stroke="url(#paint0_linear_198_414)" stroke-width="2" stroke-linecap="round" stroke-linejoin="round"/>
<path d="M37.9997 56.6666C49.9658 56.6666 59.6663 46.9661 59.6663 35C59.6663 23.0338 49.9658 13.3333 37.9997 13.3333C26.0335 13.3333 16.333 23.0338 16.333 35C16.333 46.9661 26.0335 56.6666 37.9997 56.6666Z" stroke="url(#paint1_linear_198_414)" stroke-width="2" stroke-linecap="round" stroke-linejoin="round"/>
<defs>
<linearGradient id="paint0_linear_198_414" x1="37.992" y1="24.0062" x2="37.992" y2="45.1149" gradientUnits="userSpaceOnUse">
<stop stop-color="#E43DA9"/>
<stop offset="1" stop-color="#AF12E3"/>
</linearGradient>
<linearGradient id="paint1_linear_198_414" x1="37.9997" y1="13.3333" x2="37.9997" y2="56.6666" gradientUnits="userSpaceOnUse">
<stop stop-color="#E13AAD"/>
<stop offset="1" stop-color="#AF12E3"/>
</linearGradient>
</defs>
</svg>
