<svg width="663" height="239" viewBox="0 0 663 239" fill="none" xmlns="http://www.w3.org/2000/svg">
<mask id="mask0_126_445" style="mask-type:alpha" maskUnits="userSpaceOnUse" x="0" y="0" width="663" height="239">
<rect width="663" height="239" fill="#D9D9D9"/>
</mask>
<g mask="url(#mask0_126_445)">
<path d="M351.102 33.4028L238.496 256.482C221.589 261.358 206.804 272.948 198.15 290.091C182.527 321.049 192.3 359.456 219.583 380.875C220.031 381.24 220.496 381.588 220.964 381.947C221.797 382.57 222.626 383.2 223.488 383.791C225.189 384.967 226.952 386.107 228.84 387.17L228.842 387.175L228.848 387.179C231.609 388.74 234.431 390.021 237.27 391.178C237.284 391.186 237.297 391.188 237.31 391.196C269.714 404.362 306.287 391.686 322.183 360.196C330.837 343.052 331.714 323.606 326.143 306.024L344.076 270.562C356.737 245.356 370.412 226.529 384.881 214.03C396.896 203.73 408.989 196.523 421.272 192.305C423.84 191.408 426.453 190.652 429.063 190.017C443.986 186.524 458.907 186.738 473.775 190.677C488.683 194.635 502.723 200.339 515.881 207.781C531.589 216.66 544.918 227.014 555.867 238.841C563.73 247.338 570.01 256.643 574.757 266.785C575.29 266.678 575.815 266.563 576.339 266.447C575.836 266.628 575.335 266.82 574.826 267.003C576.644 270.85 578.254 274.876 579.585 278.976C584.476 293.955 585.876 310.372 583.931 328.304C581.889 346.187 575.593 365.77 564.911 386.931L458.322 598.073L498.683 586.404L589.525 560.177L612.793 553.414C678.02 527.957 712.144 454.081 689.552 382.627C676.818 342.355 648.665 310.995 614.139 293.653C586.357 279.711 577.065 249.963 592.091 223.562C610.719 190.859 615.959 149.881 603.272 109.755C579.39 34.2252 501.171 -9.98324 428.566 11.0075L351.102 33.4028Z" fill="#0F3B6B" fill-opacity="0.25"/>
<path d="M98.4395 115.666C59.5887 128.104 37.5802 169.079 48.4716 208.28L167.415 601.683C179.659 641.676 221.919 664.251 261.977 652.104L352.344 624.782L473.415 398.773C489.268 393.072 503.175 381.789 511.75 365.774C528.195 335.076 519.555 297.702 493.014 276.965C492.155 276.276 491.258 275.615 490.34 274.961C489.727 274.526 489.123 274.076 488.494 273.662C486.714 272.484 484.862 271.339 482.876 270.275C481.165 269.363 479.414 268.551 477.629 267.802C444.288 253.293 404.854 266.534 387.383 299.147C378.799 315.171 377.11 332.994 381.157 349.342L359.349 390.051C345.998 414.975 332.013 433.598 317.337 446.021C302.667 458.442 287.794 466.395 272.722 469.874C257.652 473.358 242.815 473.427 228.149 469.993C213.432 466.644 199.699 461.469 186.844 454.646C171.477 446.355 158.453 436.666 147.673 425.524C136.922 414.344 129.28 401.527 124.76 387.081C120.238 372.629 119.244 356.648 121.833 339.168C124.298 321.684 131.068 302.664 142.108 282.171L256.906 67.7542L98.4395 115.666Z" fill="#0F3B6B" fill-opacity="0.25"/>
</g>
</svg>
