<svg width="155" height="30" viewBox="0 0 155 30" fill="none" xmlns="http://www.w3.org/2000/svg">
<path d="M41.1135 13.5568V19.4466C41.5044 19.4841 41.9232 19.512 42.3699 19.5303C42.8165 19.5489 43.2254 19.5582 43.598 19.5582C44.3236 19.5582 44.998 19.512 45.6217 19.4188C46.245 19.3258 46.7847 19.1632 47.2407 18.9301C47.6966 18.6976 48.0593 18.3859 48.3293 17.995C48.599 17.6042 48.7343 17.1017 48.7343 16.4879C48.7343 15.3897 48.3338 14.6271 47.5338 14.1988C46.7334 13.771 45.6262 13.5568 44.2121 13.5568H41.1135ZM41.1135 10.7934H43.598C44.938 10.7934 45.9888 10.6029 46.7523 10.221C47.5152 9.83972 47.8967 9.15577 47.8967 8.16942C47.8967 7.23918 47.5011 6.57832 46.7103 6.18774C45.9192 5.79657 44.8912 5.60128 43.6259 5.60128C43.0859 5.60128 42.6071 5.61088 42.1884 5.62918C41.7696 5.64778 41.4111 5.67597 41.1135 5.71287V10.7934ZM43.4864 22.4891C42.4629 22.4891 41.43 22.4564 40.3879 22.3916C39.3454 22.3262 38.4338 22.1918 37.6523 21.9869V3.20052C38.0615 3.12673 38.4989 3.05683 38.9645 2.99143C39.4291 2.92634 39.9037 2.87534 40.3879 2.83784C40.8718 2.80065 41.3508 2.77305 41.8254 2.75415C42.3 2.73585 42.7511 2.72625 43.1792 2.72625C44.3518 2.72625 45.4405 2.81474 46.4454 2.99143C47.4501 3.16842 48.32 3.46151 49.0553 3.87068C49.7902 4.28016 50.3623 4.81982 50.7718 5.48969C51.1809 6.15954 51.3858 6.98779 51.3858 7.97414C51.3858 8.88608 51.1671 9.66753 50.7301 10.3188C50.2927 10.9704 49.6831 11.4911 48.9017 11.8817C50.074 12.2729 50.9391 12.8497 51.4977 13.6126C52.056 14.3758 52.335 15.3432 52.335 16.5155C52.335 18.5071 51.6093 20.0007 50.1577 20.9958C48.7064 21.9914 46.4823 22.4891 43.4864 22.4891Z" fill="white"/>
<path d="M67.7439 7.66699C66.2392 13.2128 64.493 18.2372 62.5059 22.7405C62.1334 23.578 61.7512 24.2941 61.36 24.8899C60.9685 25.4853 60.5308 25.9785 60.0467 26.3694C59.5622 26.7599 59.0216 27.0437 58.4259 27.2207C57.8298 27.3974 57.1408 27.4859 56.3581 27.4859C55.8364 27.4859 55.3193 27.4301 54.8072 27.3182C54.2948 27.2066 53.9081 27.0854 53.6475 26.9555L54.2615 24.2476C54.9347 24.5083 55.5985 24.6388 56.2525 24.6388C57.1312 24.6388 57.8178 24.4294 58.3134 24.0106C58.809 23.5918 59.2433 22.9451 59.6174 22.0706C58.5519 20.0235 57.5286 17.7905 56.5474 15.3711C55.5661 12.9524 54.6923 10.3842 53.9264 7.66699H57.5274C57.7143 8.44844 57.9429 9.29559 58.2141 10.2072C58.485 11.1192 58.7793 12.0452 59.0966 12.9848C59.4143 13.9246 59.75 14.8594 60.1052 15.7899C60.4604 16.7207 60.8152 17.5859 61.1701 18.3859C61.7629 16.7297 62.3184 14.9665 62.8377 13.0961C63.3561 11.226 63.8286 9.41648 64.2548 7.66699H67.7439Z" fill="white"/>
<path d="M70.1445 3.81486L73.522 3.25659V7.66692H78.7141V10.4862H73.522V16.4321C73.522 17.6041 73.708 18.4417 74.0806 18.9441C74.4526 19.4466 75.0852 19.6977 75.9786 19.6977C76.5926 19.6977 77.1371 19.6329 77.6117 19.5024C78.0863 19.3722 78.463 19.2513 78.742 19.1394L79.3006 21.8195C78.9094 21.9869 78.3976 22.1591 77.7653 22.3357C77.132 22.5124 76.3878 22.6009 75.5319 22.6009C74.4895 22.6009 73.6198 22.4611 72.9221 22.1822C72.2243 21.9029 71.6702 21.4982 71.2611 20.9681C70.8516 20.4378 70.5633 19.7955 70.3956 19.0419C70.2282 18.2881 70.1445 17.4274 70.1445 16.46V3.81486Z" fill="white"/>
<path d="M90.7167 13.5289C90.7167 13.0639 90.6513 12.6217 90.5214 12.203C90.3906 11.7842 90.2004 11.4215 89.949 11.1143C89.6976 10.8071 89.3904 10.5657 89.0278 10.3887C88.6648 10.212 88.2322 10.1232 87.7297 10.1232C87.2087 10.1232 86.7527 10.221 86.3621 10.4166C85.9712 10.6119 85.6407 10.868 85.371 11.1842C85.101 11.5007 84.8919 11.8637 84.7431 12.2729C84.5937 12.6823 84.4917 13.1008 84.4359 13.5289H90.7167ZM80.9189 15.0363C80.9189 13.7521 81.1094 12.6265 81.491 11.6585C81.872 10.691 82.3793 9.88619 83.0125 9.24393C83.6449 8.60227 84.3705 8.1184 85.1895 7.79262C86.0081 7.46714 86.8457 7.30395 87.7018 7.30395C89.7117 7.30395 91.2791 7.92761 92.4056 9.17434C93.5311 10.4214 94.0939 12.2825 94.0939 14.757C94.0939 14.9433 94.0891 15.1527 94.0804 15.3852C94.0708 15.6183 94.0567 15.8273 94.0384 16.013H84.408C84.5007 17.1857 84.9147 18.0928 85.6503 18.7348C86.3849 19.377 87.4505 19.6977 88.8463 19.6977C89.6649 19.6977 90.414 19.6239 91.0934 19.4745C91.7726 19.3257 92.3075 19.1673 92.6983 18.9999L93.1453 21.7634C92.959 21.857 92.7031 21.9545 92.3774 22.0565C92.0516 22.1591 91.6796 22.2521 91.2605 22.3357C90.8423 22.4194 90.3906 22.4893 89.907 22.5451C89.4228 22.6009 88.9303 22.6288 88.4278 22.6288C87.1436 22.6288 86.027 22.4377 85.0782 22.0565C84.1288 21.6755 83.3473 21.1451 82.7332 20.4657C82.1192 19.7865 81.6629 18.9858 81.3653 18.0649C81.0677 17.1437 80.9189 16.1345 80.9189 15.0363Z" fill="white"/>
<path d="M102.525 19.6419C103.789 19.6419 104.711 19.4283 105.288 19C105.864 18.5722 106.153 17.9671 106.153 17.1857C106.153 16.7207 106.055 16.3202 105.86 15.9851C105.664 15.6504 105.386 15.348 105.023 15.0783C104.66 14.8086 104.217 14.5572 103.697 14.3241C103.176 14.092 102.58 13.864 101.911 13.6405C101.24 13.399 100.593 13.1335 99.9703 12.8449C99.3466 12.5567 98.7979 12.1985 98.3237 11.7704C97.8488 11.3423 97.4669 10.8309 97.1789 10.2351C96.8897 9.63963 96.746 8.92297 96.746 8.08572C96.746 6.33653 97.3508 4.96411 98.5603 3.96847C99.7699 2.97313 101.416 2.47486 103.501 2.47486C104.711 2.47486 105.786 2.61015 106.726 2.87954C107.664 3.14982 108.405 3.4429 108.945 3.75908L107.856 6.60621C107.223 6.25313 106.53 5.98285 105.776 5.79656C105.023 5.61087 104.245 5.51758 103.446 5.51758C102.496 5.51758 101.757 5.71286 101.227 6.10374C100.696 6.49432 100.431 7.04359 100.431 7.75064C100.431 8.17902 100.519 8.54619 100.696 8.85338C100.873 9.16056 101.124 9.43504 101.449 9.67683C101.775 9.91891 102.157 10.1421 102.594 10.3467C103.031 10.5516 103.51 10.7472 104.032 10.9329C104.943 11.2679 105.758 11.6078 106.474 11.9519C107.19 12.2963 107.795 12.7054 108.288 13.18C108.781 13.6546 109.158 14.2129 109.419 14.8548C109.679 15.4968 109.81 16.274 109.81 17.1857C109.81 18.9352 109.191 20.289 107.953 21.2468C106.716 22.2056 104.906 22.6846 102.525 22.6846C101.724 22.6846 100.993 22.633 100.333 22.5311C99.6724 22.4285 99.0859 22.3028 98.5747 22.1543C98.0624 22.0055 97.6205 21.8519 97.2485 21.6938C96.8759 21.536 96.5784 21.3914 96.3555 21.2609L97.3883 18.3859C97.8908 18.6649 98.5699 18.9442 99.4258 19.2235C100.282 19.5024 101.314 19.6419 102.525 19.6419Z" fill="white"/>
<path d="M124.66 7.66699C123.155 13.2128 121.409 18.2372 119.422 22.7405C119.049 23.578 118.667 24.2941 118.276 24.8899C117.884 25.4853 117.447 25.9785 116.963 26.3694C116.478 26.7599 115.938 27.0437 115.342 27.2207C114.746 27.3974 114.057 27.4859 113.274 27.4859C112.752 27.4859 112.235 27.4301 111.723 27.3182C111.211 27.2066 110.824 27.0854 110.563 26.9555L111.178 24.2476C111.85 24.5083 112.514 24.6388 113.169 24.6388C114.047 24.6388 114.734 24.4294 115.229 24.0106C115.725 23.5918 116.159 22.9451 116.534 22.0706C115.468 20.0235 114.445 17.7905 113.464 15.3711C112.482 12.9524 111.609 10.3842 110.842 7.66699H114.444C114.63 8.44844 114.859 9.29559 115.13 10.2072C115.401 11.1192 115.695 12.0452 116.013 12.9848C116.33 13.9246 116.666 14.8594 117.021 15.7899C117.376 16.7207 117.732 17.5859 118.086 18.3859C118.679 16.7297 119.234 14.9665 119.754 13.0961C120.272 11.226 120.744 9.41648 121.171 7.66699H124.66Z" fill="white"/>
<path d="M127.229 8.14147C127.879 7.95578 128.726 7.77849 129.768 7.6111C130.811 7.44371 131.964 7.36002 133.23 7.36002C134.42 7.36002 135.416 7.52291 136.217 7.84839C137.017 8.17417 137.654 8.63014 138.128 9.21601C138.603 9.80247 138.938 10.5098 139.133 11.3375C139.329 12.1657 139.427 13.0729 139.427 14.0592V22.2658H136.049V14.5896C136.049 13.8081 135.997 13.1431 135.895 12.5938C135.793 12.0451 135.626 11.5985 135.393 11.2538C135.16 10.9097 134.844 10.6583 134.444 10.5002C134.044 10.3421 133.555 10.2629 132.978 10.2629C132.55 10.2629 132.104 10.2908 131.639 10.3466C131.174 10.4024 130.829 10.4492 130.606 10.4861V22.2658H127.229V8.14147Z" fill="white"/>
<path d="M142.748 14.9803C142.748 13.9012 142.916 12.8918 143.251 11.9517C143.586 11.0124 144.064 10.198 144.688 9.50921C145.312 8.82105 146.07 8.28078 146.963 7.89021C147.856 7.49963 148.861 7.30404 149.978 7.30404C151.355 7.30404 152.657 7.55513 153.886 8.0576L153.16 10.8213C152.769 10.6536 152.327 10.5141 151.834 10.4026C151.341 10.291 150.815 10.2352 150.257 10.2352C148.935 10.2352 147.931 10.6494 147.242 11.4774C146.554 12.3053 146.21 13.4729 146.21 14.9803C146.21 16.4319 146.535 17.5811 147.186 18.4277C147.838 19.2745 148.935 19.6978 150.48 19.6978C151.056 19.6978 151.625 19.642 152.183 19.5304C152.741 19.4188 153.225 19.2793 153.635 19.1116L154.109 21.903C153.737 22.0893 153.174 22.2569 152.42 22.4054C151.667 22.5542 150.889 22.6289 150.09 22.6289C148.842 22.6289 147.759 22.4378 146.837 22.0566C145.916 21.6753 145.153 21.1449 144.549 20.4655C143.944 19.7863 143.492 18.9769 143.195 18.0371C142.897 17.0976 142.748 16.0785 142.748 14.9803Z" fill="white"/>
<path d="M18.4146 3.05176e-05L8.81995 9.59496C7.8534 9.59435 6.88686 9.96273 6.1495 10.7001C4.81818 12.0317 4.69399 14.1082 5.76853 15.5841C5.78593 15.609 5.80452 15.6333 5.82312 15.6582C5.85642 15.7017 5.88942 15.7455 5.92482 15.7878C5.99441 15.8718 6.06791 15.9549 6.14921 16.0359V16.0362L6.1495 16.0365C6.2683 16.1553 6.39489 16.2609 6.52448 16.3604C6.52508 16.361 6.52568 16.3613 6.52628 16.3619C8.0058 17.4968 10.1318 17.3909 11.4862 16.0365C12.2235 15.2991 12.5916 14.3326 12.591 13.366L14.1179 11.8412C15.1988 10.7562 16.2271 10.0071 17.1921 9.58835C17.9922 9.24458 18.7452 9.05769 19.4585 9.02409C19.6079 9.01629 19.7573 9.01629 19.9046 9.02229C20.7442 9.06368 21.5224 9.29167 22.236 9.70655C22.9515 10.1229 23.5926 10.6146 24.1586 11.181C24.8345 11.8568 25.3613 12.5723 25.7389 13.3273C26.0101 13.8697 26.185 14.4298 26.2657 15.0096C26.2954 15.012 26.3248 15.0138 26.3542 15.0156C26.3248 15.0174 26.2954 15.0198 26.2657 15.0216C26.2972 15.2418 26.3149 15.468 26.3167 15.6939C26.3248 16.5194 26.1262 17.3666 25.7272 18.2413C25.3241 19.1122 24.6698 20.0067 23.7596 20.9169L14.678 29.9982H16.9858L22.1793 30L23.5104 29.9982C27.3492 29.6658 30.3608 26.4422 30.3608 22.5149C30.3608 20.3013 29.4053 18.3121 27.8838 16.9361C26.6593 15.8295 26.6653 14.1961 27.8898 13.0852C29.4074 11.7095 30.3608 9.72215 30.3608 7.51668C30.3608 3.36523 26.9953 3.05176e-05 22.8438 3.05176e-05H18.4146Z" fill="url(#paint0_linear_196_147)"/>
<path d="M3.99216 1.14441e-05C1.81039 0.035408 0.0491971 1.7927 0 3.96847V25.9527C0.00779953 28.1899 1.82209 30 4.06115 29.9982H9.11105L18.8089 20.3004C19.7088 20.2539 20.5956 19.8915 21.2825 19.2043C22.5997 17.887 22.7359 15.8397 21.698 14.367C21.6647 14.3185 21.629 14.2708 21.5921 14.2231C21.5675 14.1913 21.5435 14.1589 21.5177 14.128C21.4448 14.0401 21.3677 13.9528 21.2825 13.8676C21.209 13.7944 21.1319 13.7257 21.0521 13.6597C19.5696 12.4007 17.3456 12.4682 15.9461 13.8676C15.2586 14.5551 14.8962 15.4416 14.8503 16.3412L13.1035 18.088C12.0341 19.1575 11.0297 19.8945 10.086 20.3034C9.14255 20.7123 8.25791 20.8893 7.43235 20.8341C6.6068 20.7792 5.84605 20.553 5.14829 20.1501C4.44663 19.7508 3.82357 19.2733 3.271 18.7249C2.61254 18.0625 2.09567 17.3648 1.71619 16.6274C1.33882 15.8886 1.14593 15.114 1.13813 14.3044C1.13033 13.4944 1.32682 12.6608 1.73 11.8058C2.12687 10.9488 2.76793 10.0797 3.65048 9.20136L12.8476 1.14441e-05H3.99216Z" fill="url(#paint1_linear_196_147)"/>
<defs>
<linearGradient id="paint0_linear_196_147" x1="32.8399" y1="3.42843" x2="3.92905" y2="32.6173" gradientUnits="userSpaceOnUse">
<stop stop-color="white"/>
<stop offset="1" stop-color="white"/>
</linearGradient>
<linearGradient id="paint1_linear_196_147" x1="25.3183" y1="-4.02138" x2="-3.59253" y2="25.1675" gradientUnits="userSpaceOnUse">
<stop stop-color="white"/>
<stop offset="1" stop-color="white"/>
</linearGradient>
</defs>
</svg>
