<svg width="279" height="55" viewBox="0 0 279 55" fill="none" xmlns="http://www.w3.org/2000/svg">
<path d="M74.4322 24.5436V35.2066C75.1398 35.2745 75.898 35.325 76.7066 35.3581C77.5153 35.3918 78.2555 35.4086 78.9301 35.4086C80.2438 35.4086 81.4647 35.325 82.5937 35.1561C83.7223 34.9877 84.6993 34.6934 85.5248 34.2714C86.3503 33.8505 87.0069 33.2862 87.4957 32.5786C87.9839 31.8709 88.2288 30.9613 88.2288 29.8501C88.2288 27.8618 87.5038 26.4813 86.0554 25.7058C84.6064 24.9313 82.6019 24.5436 80.0418 24.5436H74.4322ZM74.4322 19.5406H78.9301C81.356 19.5406 83.2585 19.1958 84.6406 18.5044C86.0217 17.8141 86.7125 16.5759 86.7125 14.7902C86.7125 13.1061 85.9962 11.9097 84.5646 11.2026C83.1325 10.4944 81.2713 10.1408 78.9806 10.1408C78.003 10.1408 77.1362 10.1582 76.3781 10.1913C75.6199 10.225 74.9709 10.276 74.4322 10.3428V19.5406ZM78.728 40.7146C76.875 40.7146 75.0051 40.6554 73.1185 40.5381C71.2312 40.4197 69.5808 40.1764 68.166 39.8055V5.79448C68.9068 5.66087 69.6986 5.53433 70.5415 5.41594C71.3827 5.29809 72.2419 5.20576 73.1185 5.13788C73.9945 5.07054 74.8618 5.02057 75.7209 4.98635C76.5801 4.95322 77.3969 4.93585 78.1719 4.93585C80.2948 4.93585 82.2657 5.09606 84.0851 5.41594C85.9039 5.73636 87.4788 6.26696 88.8099 7.00773C90.1405 7.74905 91.1762 8.72607 91.9175 9.93879C92.6583 11.1515 93.0292 12.651 93.0292 14.4367C93.0292 16.0877 92.6333 17.5024 91.842 18.6814C91.0502 19.861 89.9466 20.8038 88.5319 21.5109C90.6543 22.2191 92.2205 23.2635 93.2318 24.6446C94.2425 26.0262 94.7475 27.7777 94.7475 29.9001C94.7475 33.5056 93.4338 36.2097 90.8058 38.0111C88.1783 39.8136 84.1519 40.7146 78.728 40.7146Z" fill="white"/>
<path d="M122.643 13.8804C119.919 23.9205 116.758 33.0167 113.16 41.1696C112.486 42.6859 111.794 43.9823 111.086 45.0608C110.377 46.1389 109.585 47.0317 108.708 47.7394C107.831 48.4465 106.853 48.9602 105.774 49.2806C104.695 49.6005 103.447 49.7607 102.03 49.7607C101.086 49.7607 100.15 49.6597 99.2226 49.4572C98.295 49.2551 97.595 49.0357 97.123 48.8006L98.2348 43.8981C99.4534 44.37 100.655 44.6063 101.839 44.6063C103.43 44.6063 104.673 44.2272 105.57 43.469C106.467 42.7109 107.254 41.54 107.931 39.9569C106.002 36.2508 104.15 32.2081 102.373 27.8281C100.597 23.4491 99.0146 18.7997 97.6281 13.8804H104.147C104.486 15.2952 104.9 16.8289 105.391 18.4793C105.881 20.1303 106.414 21.8068 106.988 23.5078C107.563 25.2093 108.171 26.9016 108.814 28.5862C109.457 30.2714 110.1 31.8377 110.742 33.2861C111.815 30.2877 112.821 27.0954 113.761 23.7093C114.7 20.3236 115.555 17.0477 116.327 13.8804H122.643Z" fill="white"/>
<path d="M126.989 6.90654L133.104 5.89585V13.8804H142.504V18.9843H133.104V29.7489C133.104 31.8707 133.441 33.3871 134.115 34.2967C134.789 35.2064 135.934 35.661 137.551 35.661C138.663 35.661 139.649 35.5437 140.508 35.3074C141.367 35.0717 142.049 34.8529 142.554 34.6503L143.565 39.5022C142.857 39.8053 141.931 40.117 140.786 40.4369C139.639 40.7568 138.292 40.917 136.743 40.917C134.855 40.917 133.281 40.6639 132.018 40.1588C130.754 39.6532 129.751 38.9206 129.011 37.961C128.269 37.0008 127.747 35.838 127.444 34.4738C127.141 33.109 126.989 31.5509 126.989 29.7994V6.90654Z" fill="white"/>
<path d="M164.234 24.4927C164.234 23.6509 164.116 22.8504 163.88 22.0922C163.644 21.334 163.299 20.6775 162.844 20.1213C162.389 19.5652 161.833 19.128 161.176 18.8076C160.519 18.4877 159.736 18.327 158.826 18.327C157.883 18.327 157.058 18.504 156.35 18.8581C155.643 19.2117 155.044 19.6755 154.556 20.2479C154.067 20.8208 153.689 21.478 153.419 22.2187C153.149 22.9601 152.964 23.7177 152.863 24.4927H164.234ZM146.496 27.2217C146.496 24.8967 146.841 22.859 147.532 21.1065C148.221 19.355 149.14 17.8979 150.286 16.7352C151.431 15.5735 152.745 14.6975 154.228 14.1077C155.71 13.5184 157.226 13.223 158.776 13.223C162.415 13.223 165.252 14.3521 167.292 16.6092C169.329 18.8668 170.348 22.2361 170.348 26.7161C170.348 27.0533 170.339 27.4324 170.324 27.8533C170.306 28.2753 170.281 28.6538 170.248 28.99H152.813C152.981 31.1129 153.73 32.7552 155.062 33.9174C156.392 35.0802 158.321 35.6608 160.848 35.6608C162.33 35.6608 163.686 35.5272 164.916 35.2567C166.146 34.9873 167.114 34.7006 167.822 34.3975L168.631 39.4005C168.294 39.5699 167.83 39.7464 167.24 39.9311C166.651 40.1168 165.977 40.2852 165.219 40.4367C164.462 40.5882 163.644 40.7147 162.768 40.8158C161.892 40.9168 161 40.9673 160.09 40.9673C157.765 40.9673 155.744 40.6213 154.026 39.9311C152.307 39.2413 150.892 38.2812 149.781 37.0511C148.669 35.8215 147.843 34.372 147.304 32.7047C146.765 31.0369 146.496 29.2099 146.496 27.2217Z" fill="white"/>
<path d="M185.611 35.5598C187.901 35.5598 189.57 35.1731 190.614 34.3976C191.657 33.6231 192.181 32.5277 192.181 31.113C192.181 30.2712 192.003 29.5462 191.65 28.9395C191.295 28.3334 190.79 27.786 190.133 27.2978C189.476 26.8095 188.675 26.3544 187.733 25.9325C186.79 25.5121 185.711 25.0993 184.499 24.6947C183.286 24.2576 182.114 23.7769 180.987 23.2545C179.858 22.7326 178.864 22.0841 178.006 21.3091C177.146 20.5341 176.455 19.6082 175.933 18.5296C175.41 17.4516 175.149 16.1541 175.149 14.6384C175.149 11.4716 176.244 8.98697 178.434 7.18445C180.624 5.38248 183.605 4.4804 187.379 4.4804C189.57 4.4804 191.515 4.72534 193.216 5.21304C194.916 5.70236 196.257 6.23296 197.234 6.80537L195.262 11.9598C194.117 11.3206 192.862 10.8313 191.498 10.494C190.133 10.1579 188.726 9.98897 187.278 9.98897C185.56 9.98897 184.221 10.3425 183.261 11.0502C182.3 11.7573 181.82 12.7517 181.82 14.0317C181.82 14.8073 181.979 15.472 182.3 16.0281C182.62 16.5842 183.075 17.0812 183.665 17.5189C184.253 17.9572 184.945 18.3612 185.737 18.7316C186.528 19.1026 187.396 19.4566 188.34 19.7928C189.989 20.3995 191.464 21.0148 192.762 21.6377C194.058 22.2612 195.153 23.0019 196.046 23.8611C196.938 24.7203 197.621 25.731 198.093 26.8932C198.564 28.0554 198.801 29.4625 198.801 31.113C198.801 34.2803 197.68 36.7312 195.439 38.4653C193.199 40.201 189.922 41.0684 185.611 41.0684C184.162 41.0684 182.839 40.9749 181.644 40.7903C180.447 40.6046 179.386 40.377 178.46 40.1082C177.533 39.8388 176.733 39.5607 176.059 39.2745C175.385 38.9889 174.846 38.7271 174.442 38.4909L176.312 33.2859C177.222 33.791 178.451 34.2966 180.001 34.8022C181.55 35.3073 183.42 35.5598 185.611 35.5598Z" fill="white"/>
<path d="M225.685 13.8804C222.961 23.9205 219.8 33.0167 216.202 41.1696C215.527 42.6859 214.836 43.9823 214.128 45.0608C213.419 46.1389 212.627 47.0317 211.75 47.7394C210.873 48.4465 209.894 48.9602 208.815 49.2806C207.736 49.6005 206.489 49.7607 205.072 49.7607C204.128 49.7607 203.192 49.6597 202.265 49.4572C201.337 49.2551 200.638 49.0357 200.165 48.8006L201.277 43.8981C202.495 44.37 203.697 44.6063 204.881 44.6063C206.472 44.6063 207.716 44.2272 208.612 43.469C209.509 42.7109 210.296 41.54 210.974 39.9569C209.043 36.2508 207.192 32.2081 205.416 27.8281C203.639 23.4491 202.057 18.7997 200.67 13.8804H207.19C207.527 15.2952 207.941 16.8289 208.432 18.4793C208.922 20.1303 209.455 21.8068 210.03 23.5078C210.605 25.2093 211.213 26.9016 211.856 28.5862C212.499 30.2714 213.142 31.8377 213.784 33.2861C214.858 30.2877 215.863 27.0954 216.803 23.7093C217.742 20.3236 218.596 17.0477 219.369 13.8804H225.685Z" fill="white"/>
<path d="M230.335 14.7395C231.512 14.4033 233.047 14.0823 234.933 13.7793C236.82 13.4762 238.908 13.3247 241.199 13.3247C243.355 13.3247 245.158 13.6196 246.607 14.2089C248.055 14.7987 249.21 15.6242 250.068 16.6848C250.928 17.7466 251.534 19.0272 251.887 20.5255C252.242 22.025 252.419 23.6673 252.419 25.453V40.3103H246.303V26.4132C246.303 24.9984 246.21 23.7944 246.025 22.8C245.84 21.8067 245.537 20.998 245.116 20.374C244.694 19.7511 244.122 19.296 243.398 19.0098C242.673 18.7236 241.788 18.5802 240.744 18.5802C239.969 18.5802 239.161 18.6307 238.319 18.7317C237.477 18.8327 236.854 18.9175 236.449 18.9843V40.3103H230.335V14.7395Z" fill="white"/>
<path d="M258.432 27.1201C258.432 25.1666 258.735 23.3391 259.341 21.6371C259.948 19.9367 260.815 18.4622 261.944 17.2153C263.073 15.9694 264.446 14.9913 266.063 14.2842C267.68 13.5771 269.499 13.223 271.521 13.223C274.013 13.223 276.372 13.6776 278.595 14.5872L277.281 19.5907C276.574 19.2871 275.773 19.0346 274.881 18.8326C273.988 18.6305 273.036 18.5295 272.026 18.5295C269.632 18.5295 267.814 19.2795 266.568 20.7785C265.321 22.2774 264.699 24.3911 264.699 27.1201C264.699 29.7481 265.288 31.8287 266.467 33.3613C267.646 34.8945 269.632 35.6608 272.43 35.6608C273.473 35.6608 274.502 35.5597 275.512 35.3577C276.524 35.1557 277.399 34.9031 278.141 34.5996L279 39.653C278.326 39.9903 277.307 40.2939 275.942 40.5627C274.578 40.8321 273.171 40.9673 271.723 40.9673C269.465 40.9673 267.503 40.6213 265.835 39.9311C264.168 39.2408 262.786 38.2806 261.691 37.0505C260.597 35.821 259.779 34.3557 259.241 32.6542C258.702 30.9533 258.432 29.1084 258.432 27.1201Z" fill="white"/>
<path d="M33.3377 2.28882e-05L15.9675 17.3708C14.2177 17.3697 12.4678 18.0366 11.1329 19.3715C8.72269 21.7823 8.49786 25.5415 10.4432 28.2135C10.4747 28.2586 10.5084 28.3026 10.542 28.3477C10.6023 28.4264 10.6621 28.5057 10.7262 28.5823C10.8522 28.7344 10.9852 28.8848 11.1324 29.0314V29.032L11.1329 29.0325C11.348 29.2476 11.5772 29.4387 11.8118 29.619C11.8129 29.6201 11.814 29.6207 11.8151 29.6218C14.4936 31.6763 18.3424 31.4846 20.7945 29.0325C22.1294 27.6976 22.7958 25.9478 22.7947 24.1979L25.559 21.4374C27.5158 19.473 29.3775 18.117 31.1246 17.3588C32.573 16.7364 33.9362 16.3981 35.2277 16.3372C35.4981 16.3231 35.7686 16.3231 36.0352 16.334C37.5553 16.4089 38.9641 16.8217 40.2561 17.5728C41.5514 18.3266 42.712 19.2167 43.7368 20.2421C44.9604 21.4656 45.914 22.7609 46.5978 24.1279C47.0887 25.1098 47.4053 26.1237 47.5514 27.1735C47.6052 27.1779 47.6584 27.1811 47.7117 27.1844C47.6584 27.1876 47.6052 27.192 47.5514 27.1952C47.6085 27.5939 47.6405 28.0034 47.6438 28.4123C47.6584 29.9069 47.2989 31.4406 46.5766 33.0242C45.8467 34.6008 44.6622 36.2203 43.0145 37.868L26.573 54.309H30.751L40.1535 54.3123L42.5632 54.309C49.5131 53.7073 54.9652 47.8712 54.9652 40.7611C54.9652 36.7536 53.2354 33.1524 50.4809 30.6612C48.264 28.6578 48.2748 25.7007 50.4917 23.6896C53.2392 21.199 54.9652 17.601 54.9652 13.6082C54.9652 6.0924 48.8722 2.28882e-05 41.3564 2.28882e-05H33.3377Z" fill="url(#paint0_linear_186_418)"/>
<path d="M7.22744 0.000102997C3.27755 0.0641861 0.0890667 3.2456 0 7.18463V46.985C0.0141203 51.0353 3.29872 54.3123 7.35234 54.3091H16.4947L34.0517 36.7521C35.681 36.6679 37.2864 36.0118 38.53 34.7676C40.9147 32.3829 41.1613 28.6763 39.2822 26.0103C39.2219 25.9223 39.1573 25.836 39.0905 25.7496C39.046 25.692 39.0025 25.6334 38.9558 25.5775C38.8238 25.4183 38.6843 25.2603 38.53 25.1061C38.397 24.9735 38.2574 24.8492 38.1129 24.7297C35.429 22.4503 31.4025 22.5725 28.869 25.1061C27.6243 26.3508 26.9682 27.9557 26.8851 29.5844L23.7227 32.7468C21.7866 34.6829 19.9683 36.0173 18.2598 36.7575C16.5517 37.4977 14.9502 37.8182 13.4556 37.7182C11.961 37.6188 10.5837 37.2094 9.32051 36.48C8.05022 35.7571 6.92222 34.8925 5.92185 33.8998C4.72976 32.7006 3.79402 31.4374 3.10701 30.1025C2.42381 28.7649 2.0746 27.3626 2.06048 25.8968C2.04636 24.4305 2.40208 22.9212 3.132 21.3734C3.8505 19.8218 5.01108 18.2485 6.60885 16.6583L23.2594 0.000102997H7.22744Z" fill="url(#paint1_linear_186_418)"/>
<defs>
<linearGradient id="paint0_linear_186_418" x1="59.4534" y1="6.20683" x2="7.11301" y2="59.0505" gradientUnits="userSpaceOnUse">
<stop stop-color="#00B1D4"/>
<stop offset="1" stop-color="#15274D"/>
</linearGradient>
<linearGradient id="paint1_linear_186_418" x1="45.8365" y1="-7.28025" x2="-6.50396" y2="45.5635" gradientUnits="userSpaceOnUse">
<stop stop-color="#00B1D4"/>
<stop offset="1" stop-color="#15274D"/>
</linearGradient>
</defs>
</svg>
