<svg width="300" height="300" viewBox="0 0 300 300" fill="none" xmlns="http://www.w3.org/2000/svg">
<path d="M150.026 61.925C155.925 61.925 160.707 66.7071 160.707 72.6061C160.707 78.5051 155.925 83.2872 150.026 83.2872C136.833 83.2872 123.937 87.1994 112.968 94.5288C101.999 101.858 93.4489 112.276 88.4003 124.464C83.3517 136.652 82.0307 150.064 84.6044 163.003C87.1782 175.943 93.5314 187.829 102.86 197.157C112.189 206.486 124.074 212.838 137.013 215.412C149.952 217.986 163.364 216.665 175.552 211.616C187.741 206.567 198.159 198.019 205.488 187.049C212.818 176.08 216.73 163.183 216.73 149.99C216.73 144.091 221.512 139.309 227.411 139.309C233.31 139.309 238.092 144.092 238.092 149.99C238.092 167.408 232.926 184.435 223.25 198.917C213.573 213.399 199.819 224.687 183.727 231.353C167.635 238.018 149.928 239.762 132.845 236.364C115.762 232.966 100.071 224.579 87.7545 212.263C75.4383 199.947 67.0512 184.254 63.6532 167.171C60.2552 150.088 61.999 132.381 68.6644 116.289C75.3299 100.197 86.6173 86.4433 101.099 76.7666C115.582 67.0899 132.608 61.9251 150.026 61.925Z" fill="url(#paint0_linear_114_434)"/>
<path d="M77.39 18.7344C104.594 3.68912 135.8 -2.53065 166.693 0.935086C172.555 1.59274 176.775 6.87789 176.117 12.74C175.46 18.6021 170.175 22.8214 164.312 22.1639C137.82 19.1917 111.057 24.5257 87.7282 37.4281C64.3995 50.3305 45.6567 70.1638 34.0925 94.184C22.5283 118.204 18.7146 145.225 23.1783 171.507C27.6421 197.79 40.1632 222.036 59.0093 240.892C77.8553 259.747 102.095 272.28 128.375 276.757C154.656 281.234 181.678 277.434 205.704 265.882C229.73 254.33 249.573 235.597 262.487 212.274C275.401 188.952 280.748 162.193 277.79 135.699C277.135 129.837 281.357 124.553 287.219 123.898C293.082 123.243 298.366 127.466 299.02 133.328C302.471 164.223 296.235 195.427 281.176 222.623C266.116 249.819 242.978 271.663 214.961 285.134C186.945 298.605 155.434 303.037 124.788 297.816C94.1426 292.596 65.8765 277.981 43.9001 255.994C21.9238 234.006 7.32257 205.733 2.11734 175.085C-3.0878 144.437 1.35978 112.928 14.8446 84.9179C28.3297 56.9078 50.1863 33.7799 77.39 18.7344Z" fill="url(#paint1_linear_114_434)"/>
<path d="M235.335 3.14576C238.39 0.0912555 242.984 -0.823508 246.975 0.829353C250.966 2.48258 253.569 6.37841 253.569 10.6985V46.4475H289.318C293.638 46.4476 297.533 49.0502 299.187 53.0413C300.84 57.0323 299.926 61.6262 296.871 64.6809L250.44 111.113C248.437 113.116 245.72 114.24 242.888 114.24H200.881L174.462 140.659C175.589 143.611 176.185 146.77 176.185 149.99C176.185 156.928 173.428 163.582 168.522 168.488C163.617 173.393 156.963 176.149 150.025 176.149C143.088 176.149 136.435 173.393 131.529 168.488C126.624 163.582 123.868 156.928 123.868 149.99C123.868 143.053 126.624 136.4 131.529 131.494C136.435 126.589 143.088 123.833 150.025 123.833C153.245 123.833 156.404 124.427 159.355 125.554L185.775 99.135V57.1282C185.776 54.2957 186.9 51.5784 188.903 49.5754L235.335 3.14576ZM207.138 61.553V92.8782H238.463L263.531 67.8098H242.888C236.989 67.8098 232.207 63.0271 232.207 57.1282V36.4836L207.138 61.553Z" fill="url(#paint2_linear_114_434)"/>
<defs>
<linearGradient id="paint0_linear_114_434" x1="216.825" y1="213.272" x2="80.7523" y2="91.6731" gradientUnits="userSpaceOnUse">
<stop stop-color="#BF1FA2"/>
<stop offset="1" stop-color="#155EAD"/>
</linearGradient>
<linearGradient id="paint1_linear_114_434" x1="263.73" y1="257.739" x2="32.0016" y2="50.6596" gradientUnits="userSpaceOnUse">
<stop stop-color="#BF1FA2"/>
<stop offset="1" stop-color="#155EAD"/>
</linearGradient>
<linearGradient id="paint2_linear_114_434" x1="278.733" y1="151.364" x2="142.659" y2="29.7652" gradientUnits="userSpaceOnUse">
<stop stop-color="#BF1FA2"/>
<stop offset="1" stop-color="#155EAD"/>
</linearGradient>
</defs>
</svg>
