<svg width="355" height="113" viewBox="0 0 355 113" fill="none" xmlns="http://www.w3.org/2000/svg">
<path d="M11 106C7.9349 106 5.34245 104.926 3.22266 102.777C1.07422 100.629 0 98.0365 0 95V73C0 69.9635 1.07422 67.3854 3.22266 65.2656C5.37109 63.0885 7.96354 62 11 62H49.0273V73H16.5C14.9818 73 13.6784 73.5443 12.5898 74.6328C11.5299 75.7214 11 77.0104 11 78.5V89.5C11 91.0182 11.5299 92.3216 12.5898 93.4102C13.6784 94.4701 14.9818 95 16.5 95H49.5V106H11ZM57.55 106V62H68.55V78.5H101.55V62H112.55V106H101.55V89.5H68.55V106H57.55ZM120.6 106V62H131.6V106H120.6ZM180.9 78.5C181.645 78.5 182.289 78.2422 182.834 77.7266C183.378 77.1823 183.65 76.5234 183.65 75.75C183.65 75.0052 183.378 74.3607 182.834 73.8164C182.289 73.2721 181.645 73 180.9 73H150.65V78.5H180.9ZM139.65 106V62H189.15C190.64 62 191.929 62.5443 193.017 63.6328C194.106 64.7214 194.65 66.0104 194.65 67.5V77.125C194.65 80.1901 193.561 82.7826 191.384 84.9023C190.84 85.4753 190.253 85.9622 189.623 86.3633C190.768 86.9076 191.814 87.6667 192.759 88.6406C193.304 89.1562 193.776 89.7005 194.177 90.2734C194.492 90.6745 194.779 91.2044 195.037 91.8633C195.352 92.6367 195.681 93.6823 196.025 95L198.775 106H186.83L184.681 93.1523C184.423 92.4076 183.994 91.7344 183.392 91.1328C182.304 90.0443 181.015 89.5 179.525 89.5H150.65V106H139.65ZM243.95 78.5C244.695 78.5 245.339 78.2422 245.884 77.7266C246.428 77.1823 246.7 76.5234 246.7 75.75C246.7 75.0052 246.428 74.3607 245.884 73.8164C245.339 73.2721 244.695 73 243.95 73H213.7V78.5H243.95ZM202.7 106V62H252.2C253.69 62 254.979 62.5443 256.067 63.6328C257.156 64.7214 257.7 66.0104 257.7 67.5V77.125C257.7 80.1901 256.611 82.7826 254.434 84.9023C253.89 85.4753 253.303 85.9622 252.673 86.3633C253.818 86.9076 254.864 87.6667 255.809 88.6406C256.354 89.1562 256.826 89.7005 257.227 90.2734C257.542 90.6745 257.829 91.2044 258.087 91.8633C258.402 92.6367 258.731 93.6823 259.075 95L261.825 106H249.88L247.731 93.1523C247.473 92.4076 247.044 91.7344 246.442 91.1328C245.354 90.0443 244.065 89.5 242.575 89.5H213.7V106H202.7ZM301.5 89.5L294.324 75.1914C294.038 74.7044 293.68 74.4609 293.25 74.4609C292.82 74.4609 292.448 74.7044 292.133 75.1914L285 89.5H301.5ZM263 106L282.25 67.5C282.909 66.3542 283.596 65.4375 284.312 64.75C286.461 62.5729 289.44 61.4271 293.25 61.3125C297.089 61.4271 300.068 62.5729 302.188 64.75C302.904 65.4375 303.591 66.3542 304.25 67.5L323.5 106H309.75L305.625 97.75H280.875L276.75 106H263Z" fill="white"/>
<path d="M17.024 40L14.528 33.984H5.44L2.88 40H0.256L10.08 17.632L19.648 40H17.024ZM6.368 31.744H13.6L10.016 23.2L6.368 31.744ZM22.4582 18.656H26.3302C27.6316 18.6773 28.6982 18.8053 29.5302 19.04C30.3622 19.2747 31.0876 19.648 31.7063 20.16C32.3463 20.736 32.8263 21.4187 33.1462 22.208C33.4876 22.9973 33.6582 23.84 33.6582 24.736C33.6582 26.6133 33.0396 28.0853 31.8022 29.152C30.5862 30.1973 28.9542 30.72 26.9062 30.72H24.8262V40H22.4582V18.656ZM24.8262 20.896V28.48H26.7782C28.1862 28.48 29.2849 28.1493 30.0742 27.488C30.8636 26.8053 31.2689 25.8453 31.2902 24.608C31.2689 23.392 30.8529 22.4747 30.0422 21.856C29.2529 21.2373 28.1009 20.9173 26.5862 20.896H24.8262ZM36.852 18.656H39.22V37.76H45.108V40H36.852V18.656ZM48.1208 18.656H50.4888V40H48.1208V18.656ZM72.1158 20.416V23.36C71.6678 22.9547 71.1984 22.5813 70.7078 22.24C70.2384 21.8987 69.7798 21.6107 69.3318 21.376C68.7558 21.12 68.1478 20.9173 67.5078 20.768C66.8678 20.6187 66.2491 20.544 65.6518 20.544C63.1984 20.5653 61.1504 21.44 59.5078 23.168C57.8651 24.8747 57.0544 26.9653 57.0758 29.44C57.0758 31.8933 57.8864 33.9627 59.5078 35.648C61.1504 37.312 63.2091 38.144 65.6838 38.144C66.3664 38.1653 67.0384 38.0907 67.6998 37.92C68.3824 37.728 69.0331 37.472 69.6518 37.152C70.0784 36.9387 70.4944 36.6827 70.8998 36.384C71.3264 36.0853 71.7318 35.744 72.1158 35.36V38.304C71.1344 39.008 70.0891 39.5307 68.9798 39.872C67.8704 40.2133 66.7718 40.384 65.6838 40.384C62.5264 40.384 59.8918 39.3387 57.7798 37.248C55.6891 35.136 54.6438 32.5227 54.6438 29.408C54.6438 26.2507 55.6998 23.616 57.8118 21.504C59.9451 19.3707 62.6118 18.304 65.8118 18.304C66.9851 18.304 68.0944 18.4853 69.1398 18.848C70.1851 19.2107 71.1771 19.7333 72.1158 20.416ZM90.5553 40L88.0593 33.984H78.9713L76.4113 40H73.7873L83.6113 17.632L93.1793 40H90.5553ZM79.8993 31.744H87.1313L83.5473 23.2L79.8993 31.744ZM106.047 20.896H100.863V40H98.4945V20.896H93.3105V18.656H106.047V20.896ZM109.039 18.656H111.407V40H109.039V18.656ZM114.219 18.656H116.843L122.859 34.944L128.875 18.656H131.499L122.859 41.28L114.219 18.656ZM144.28 40.384C141.165 40.384 138.53 39.3387 136.376 37.248C134.221 35.136 133.154 32.5013 133.176 29.344C133.176 26.208 134.242 23.584 136.376 21.472C138.53 19.36 141.165 18.304 144.28 18.304C147.373 18.304 149.997 19.36 152.152 21.472C154.306 23.584 155.384 26.208 155.384 29.344C155.384 32.5013 154.306 35.136 152.152 37.248C149.997 39.3387 147.373 40.384 144.28 40.384ZM144.28 20.544C141.869 20.544 139.821 21.408 138.136 23.136C136.45 24.8427 135.608 26.912 135.608 29.344C135.586 31.7973 136.418 33.8773 138.104 35.584C139.81 37.2907 141.869 38.144 144.28 38.144C146.669 38.144 148.706 37.2907 150.392 35.584C152.098 33.8773 152.952 31.7973 152.952 29.344C152.93 26.912 152.077 24.8427 150.392 23.136C148.706 21.408 146.669 20.544 144.28 20.544Z" fill="#FF59D9"/>
</svg>
