<svg width="306" height="19" viewBox="0 0 306 19" fill="none" xmlns="http://www.w3.org/2000/svg">
<path d="M289.7 18.2812C288.446 18.2812 287.386 17.8418 286.519 16.9629C285.64 16.084 285.2 15.0234 285.2 13.7812V0.28125H289.7V11.5312C289.7 12.1523 289.917 12.6855 290.351 13.1309C290.796 13.5645 291.329 13.7812 291.95 13.7812H305.45V18.2812H289.7Z" fill="white"/>
<path d="M274.15 11.5312L271.215 5.67773C271.098 5.47852 270.951 5.37891 270.775 5.37891C270.6 5.37891 270.447 5.47852 270.318 5.67773L267.4 11.5312H274.15ZM258.4 18.2812L266.275 2.53125C266.545 2.0625 266.826 1.6875 267.119 1.40625C267.998 0.515625 269.217 0.046875 270.775 0C272.346 0.046875 273.564 0.515625 274.432 1.40625C274.725 1.6875 275.006 2.0625 275.275 2.53125L283.15 18.2812H277.525L275.838 14.9062H265.713L264.025 18.2812H258.4Z" fill="white"/>
<path d="M243.975 18.2812V4.78125H234.975V0.28125H257.475V4.78125H248.475V18.2812H243.975Z" fill="white"/>
<path d="M228.425 18.2812V0.28125H232.925V18.2812H228.425Z" fill="white"/>
<path d="M207.25 18.2812C205.996 18.2812 204.936 17.8418 204.068 16.9629C203.189 16.084 202.75 15.0234 202.75 13.7812V4.78125C202.75 3.53906 203.189 2.48438 204.068 1.61719C204.947 0.726562 206.008 0.28125 207.25 0.28125H224.688V4.78125H209.5C208.879 4.78125 208.346 5.00391 207.9 5.44922C207.467 5.89453 207.25 6.42188 207.25 7.03125V11.5312C207.25 12.1523 207.467 12.6855 207.9 13.1309C208.346 13.5645 208.879 13.7812 209.5 13.7812H219.625C219.93 13.7812 220.193 13.6758 220.416 13.4648C220.639 13.2422 220.75 12.9727 220.75 12.6562C220.75 12.3516 220.639 12.0879 220.416 11.8652C220.193 11.6426 219.93 11.5312 219.625 11.5312H214V7.03125H220.75C221.992 7.03125 223.047 7.47656 223.914 8.36719C224.805 9.24609 225.25 10.3008 225.25 11.5312V13.7812C225.25 15.0352 224.805 16.0957 223.914 16.9629C223.035 17.8418 221.98 18.2812 220.75 18.2812H207.25Z" fill="white"/>
<path d="M195.075 18.2812V0.28125H199.575V18.2812H195.075Z" fill="white"/>
<path d="M185.15 13.7812C185.76 13.7812 186.287 13.5645 186.732 13.1309C187.178 12.6855 187.4 12.1523 187.4 11.5312V7.03125C187.4 6.42188 187.178 5.89453 186.732 5.44922C186.287 5.00391 185.76 4.78125 185.15 4.78125H173.9V13.7812H185.15ZM169.4 18.2812V0.28125H187.4C188.643 0.28125 189.697 0.726562 190.564 1.61719C191.455 2.49609 191.9 3.55078 191.9 4.78125V13.7812C191.9 15.0352 191.455 16.0957 190.564 16.9629C189.686 17.8418 188.631 18.2812 187.4 18.2812H169.4Z" fill="white"/>
<path d="M149.55 11.5312L146.614 5.67773C146.497 5.47852 146.351 5.37891 146.175 5.37891C145.999 5.37891 145.847 5.47852 145.718 5.67773L142.8 11.5312H149.55ZM133.8 18.2812L141.675 2.53125C141.944 2.0625 142.226 1.6875 142.519 1.40625C143.397 0.515625 144.616 0.046875 146.175 0C147.745 0.046875 148.964 0.515625 149.831 1.40625C150.124 1.6875 150.405 2.0625 150.675 2.53125L158.55 18.2812H152.925L151.237 14.9062H141.112L139.425 18.2812H133.8Z" fill="white"/>
<path d="M127.25 18.2812V0.28125H131.75V18.2812H127.25Z" fill="white"/>
<path d="M108.325 18.2812C107.071 18.2812 106.011 17.8418 105.144 16.9629C104.265 16.084 103.825 15.0234 103.825 13.7812V4.78125C103.825 3.53906 104.265 2.48438 105.144 1.61719C106.022 0.726562 107.083 0.28125 108.325 0.28125H123.882V4.78125H110.575C109.954 4.78125 109.421 5.00391 108.976 5.44922C108.542 5.89453 108.325 6.42188 108.325 7.03125V11.5312C108.325 12.1523 108.542 12.6855 108.976 13.1309C109.421 13.5645 109.954 13.7812 110.575 13.7812H124.075V18.2812H108.325Z" fill="white"/>
<path d="M75.9004 18.2812V4.5C75.9004 3.25781 76.3398 2.20312 77.2188 1.33594C78.0977 0.445312 79.1582 0 80.4004 0C81.7598 0.0703125 82.8848 0.539062 83.7754 1.40625C84.0566 1.66406 87.8066 5.41406 95.0254 12.6562C95.3066 12.9375 95.5879 12.9375 95.8691 12.6562C96.0566 12.4219 96.1504 12.1406 96.1504 11.8125V0.28125H100.65V14.0625C100.65 15.3164 100.205 16.377 99.3145 17.2441C98.4355 18.123 97.3809 18.5625 96.1504 18.5625C94.791 18.4688 93.666 18 92.7754 17.1562C92.4941 16.8984 88.7441 13.1484 81.5254 5.90625C81.2441 5.625 80.9629 5.625 80.6816 5.90625C80.4941 6.14062 80.4004 6.42188 80.4004 6.75V18.2812H75.9004Z" fill="white"/>
<path d="M56.9746 18.2812C55.7207 18.2812 54.6602 17.8418 53.793 16.9629C52.9141 16.084 52.4746 15.0234 52.4746 13.7812V4.78125C52.4746 3.53906 52.9141 2.48438 53.793 1.61719C54.6719 0.726562 55.7324 0.28125 56.9746 0.28125H72.1621V4.78125H58.0996C57.7832 4.78125 57.5137 4.89258 57.291 5.11523C57.0801 5.33789 56.9746 5.60156 56.9746 5.90625V7.03125H71.9688V11.5312H56.9746V12.6562C56.9746 12.9727 57.0801 13.2422 57.291 13.4648C57.5137 13.6758 57.7832 13.7812 58.0996 13.7812H72.7246V18.2812H56.9746Z" fill="white"/>
<path d="M31.2998 18.2812C30.0459 18.2812 28.9854 17.8418 28.1182 16.9629C27.2393 16.084 26.7998 15.0234 26.7998 13.7812V4.78125C26.7998 3.53906 27.2393 2.48438 28.1182 1.61719C28.9971 0.726562 30.0576 0.28125 31.2998 0.28125H48.7373V4.78125H33.5498C32.9287 4.78125 32.3955 5.00391 31.9502 5.44922C31.5166 5.89453 31.2998 6.42188 31.2998 7.03125V11.5312C31.2998 12.1523 31.5166 12.6855 31.9502 13.1309C32.3955 13.5645 32.9287 13.7812 33.5498 13.7812H43.6748C43.9795 13.7812 44.2432 13.6758 44.4658 13.4648C44.6885 13.2422 44.7998 12.9727 44.7998 12.6562C44.7998 12.3516 44.6885 12.0879 44.4658 11.8652C44.2432 11.6426 43.9795 11.5312 43.6748 11.5312H38.0498V7.03125H44.7998C46.042 7.03125 47.0967 7.47656 47.9639 8.36719C48.8545 9.24609 49.2998 10.3008 49.2998 11.5312V13.7812C49.2998 15.0352 48.8545 16.0957 47.9639 16.9629C47.085 17.8418 46.0303 18.2812 44.7998 18.2812H31.2998Z" fill="white"/>
<path d="M15.75 11.5312L12.8145 5.67773C12.6973 5.47852 12.5508 5.37891 12.375 5.37891C12.1992 5.37891 12.0469 5.47852 11.918 5.67773L9 11.5312H15.75ZM0 18.2812L7.875 2.53125C8.14453 2.0625 8.42578 1.6875 8.71875 1.40625C9.59766 0.515625 10.8164 0.046875 12.375 0C13.9453 0.046875 15.1641 0.515625 16.0312 1.40625C16.3242 1.6875 16.6055 2.0625 16.875 2.53125L24.75 18.2812H19.125L17.4375 14.9062H7.3125L5.625 18.2812H0Z" fill="white"/>
</svg>
