<svg width="300" height="300" viewBox="0 0 300 300" fill="none" xmlns="http://www.w3.org/2000/svg">
<path d="M150 225L173.4 173.7L225 150L173.4 126.6L150 75L126.45 126.6L75.0001 150L126.45 173.7L150 225ZM92.5501 11.4C110.776 3.89922 130.291 0.0268728 150 0C169.65 0 189.15 3.9 207.45 11.4C225.6 18.9 242.1 30 256.05 43.95C270 57.9 281.1 74.4 288.6 92.55C296.1 110.85 300 130.35 300 150C300 189.75 284.25 228 256.05 256.05C242.139 270 225.609 281.063 207.41 288.606C189.211 296.148 169.7 300.02 150 300C130.291 299.973 110.776 296.101 92.5501 288.6C74.371 281.044 57.8571 269.984 43.9501 256.05C30.0004 242.139 18.9366 225.609 11.3942 207.41C3.85193 189.211 -0.0202711 169.7 7.98024e-05 150C7.98024e-05 110.25 15.7501 72 43.9501 43.95C57.9001 30 74.4001 18.9 92.5501 11.4ZM65.1001 234.9C87.6001 257.4 118.2 270 150 270C181.8 270 212.4 257.4 234.9 234.9C257.4 212.4 270 181.8 270 150C270 118.2 257.4 87.6 234.9 65.1C223.747 53.9599 210.509 45.1262 195.942 39.1036C181.375 33.081 165.763 29.9876 150 30C118.2 30 87.6001 42.6 65.1001 65.1C53.9599 76.2525 45.1263 89.4906 39.1037 104.058C33.0811 118.625 29.9877 134.237 30.0001 150C30.0001 181.8 42.6001 212.4 65.1001 234.9Z" fill="url(#paint0_linear_114_446)"/>
<defs>
<linearGradient id="paint0_linear_114_446" x1="64.5" y1="31.5" x2="221" y2="274.5" gradientUnits="userSpaceOnUse">
<stop stop-color="#155EAD"/>
<stop offset="1" stop-color="#B522A1"/>
</linearGradient>
</defs>
</svg>
