<svg width="300" height="300" viewBox="0 0 300 300" fill="none" xmlns="http://www.w3.org/2000/svg">
<path d="M150 0C232.845 0 300 67.155 300 150C300 232.845 232.845 300 150 300C67.155 300 0 232.845 0 150C0 67.155 67.155 0 150 0ZM150 30C118.174 30 87.6516 42.6428 65.1472 65.1472C42.6428 87.6516 30 118.174 30 150C30 181.826 42.6428 212.348 65.1472 234.853C87.6516 257.357 118.174 270 150 270C181.826 270 212.348 257.357 234.853 234.853C257.357 212.348 270 181.826 270 150C270 118.174 257.357 87.6516 234.853 65.1472C212.348 42.6428 181.826 30 150 30ZM150 75C165.789 75.006 181.173 79.9946 193.961 89.2551C206.749 98.5156 216.288 111.576 221.219 126.574C226.151 141.573 226.223 157.746 221.426 172.788C216.628 187.831 207.206 200.975 194.502 210.35C181.797 219.724 166.458 224.85 150.67 224.997C134.882 225.144 119.45 220.304 106.573 211.168C93.6959 202.032 84.0306 189.065 78.9541 174.115C73.8775 159.164 73.6486 142.993 78.3 127.905C81.8088 135.746 87.9041 142.143 95.5658 146.027C103.228 149.911 111.991 151.046 120.389 149.242C128.788 147.437 136.311 142.803 141.702 136.115C147.092 129.427 150.021 121.09 150 112.5C150.002 105.277 147.918 98.2071 143.998 92.1401C140.079 86.0731 134.49 81.2672 127.905 78.3C135.064 76.1031 142.512 74.9908 150 75Z" fill="url(#paint0_linear_114_445)"/>
<defs>
<linearGradient id="paint0_linear_114_445" x1="68.5" y1="24.5" x2="247.5" y2="272.5" gradientUnits="userSpaceOnUse">
<stop stop-color="#155EAD"/>
<stop offset="1" stop-color="#B522A1"/>
</linearGradient>
</defs>
</svg>
